<?xml version="1.0" encoding="UTF-8"?>
<!DOCTYPE svg PUBLIC "-//W3C//DTD SVG 1.1//EN" "http://www.w3.org/Graphics/SVG/1.1/DTD/svg11.dtd">
<!-- Creator: CorelDRAW X8 -->
<svg xmlns="http://www.w3.org/2000/svg" xml:space="preserve" width="55.0332mm" height="55.0332mm" version="1.1" style="shape-rendering:geometricPrecision; text-rendering:geometricPrecision; image-rendering:optimizeQuality; fill-rule:evenodd; clip-rule:evenodd"
viewBox="0 0 5503 5503"
 xmlns:xlink="http://www.w3.org/1999/xlink">
 <defs>
  <style type="text/css">
   <![CDATA[
    .fil0 {fill:#F20746}
    .fil1 {fill:white}
   ]]>
  </style>
 </defs>
 <g id="Capa_x0020_1">
  <metadata id="CorelCorpID_0Corel-Layer"/>
  <g id="_2349839348784">
   <circle class="fil0" cx="2752" cy="2752" r="2668"/>
   <path class="fil1" d="M2257 4176c-162,12 -182,34 -375,0 -113,-19 -203,-85 -250,-152 -42,-62 -48,-132 -140,-263 -88,-125 -195,-125 -194,-206 89,-83 273,45 319,88 102,96 187,411 591,277 42,-14 54,-10 62,-54 8,-40 12,-55 25,-91 33,-88 74,-110 91,-142 -197,-27 -347,-58 -498,-144 -141,-80 -239,-181 -308,-341 -71,-164 -103,-363 -90,-561 12,-176 102,-372 197,-452 1,-54 -49,-119 -37,-281 5,-65 28,-214 64,-253 103,-49 405,115 479,162 48,30 44,45 111,28 232,-59 504,-72 740,-31 194,33 173,61 257,8 107,-68 327,-193 485,-170 30,46 59,184 64,253 13,171 -37,228 -36,284 103,78 187,302 197,452 13,191 -21,412 -89,562 -131,285 -377,412 -672,464l-101 14c-43,7 -6,-13 -36,14 91,67 129,219 130,374 1,169 -2,338 0,507 2,199 198,101 318,44 58,-28 113,-56 168,-85 60,-31 103,-63 156,-97 55,-35 94,-73 144,-110 64,-47 132,-130 188,-188 27,-28 37,-36 61,-68 38,-49 71,-91 109,-145 319,-464 426,-1059 279,-1622 -73,-282 -195,-489 -332,-682 -35,-50 -78,-98 -114,-139 -287,-324 -705,-553 -1154,-626 -1191,-193 -2185,702 -2282,1732 -51,529 70,972 362,1383 18,25 39,50 57,73 19,24 39,53 58,72l123 130c170,153 236,202 442,317 60,34 296,153 376,124 69,-25 58,-117 58,-198 -1,-86 0,-174 -3,-261z"/>
  </g>
 </g>
</svg>
