<?xml version="1.0" encoding="UTF-8"?>
<!DOCTYPE svg PUBLIC "-//W3C//DTD SVG 1.1//EN" "http://www.w3.org/Graphics/SVG/1.1/DTD/svg11.dtd">
<!-- Creator: CorelDRAW X8 -->
<svg xmlns="http://www.w3.org/2000/svg" xml:space="preserve" width="55.0332mm" height="55.0332mm" version="1.1" style="shape-rendering:geometricPrecision; text-rendering:geometricPrecision; image-rendering:optimizeQuality; fill-rule:evenodd; clip-rule:evenodd"
viewBox="0 0 5503 5503"
 xmlns:xlink="http://www.w3.org/1999/xlink">
 <defs>
  <style type="text/css">
   <![CDATA[
    .fil0 {fill:#F20746}
    .fil1 {fill:white}
   ]]>
  </style>
 </defs>
 <g id="Capa_x0020_1">
  <metadata id="CorelCorpID_0Corel-Layer"/>
  <g id="_2349849398000">
   <circle class="fil0" cx="2752" cy="2752" r="2668"/>
   <g>
    <path class="fil1" d="M1905 1073c-279,40 -418,127 -569,273 -124,119 -250,337 -264,583 -12,197 -4,614 -4,834 0,181 -8,696 6,839 40,432 409,804 850,831 189,11 624,3 839,3 154,0 734,7 840,-5 443,-53 802,-405 829,-857 11,-197 3,-614 3,-833 0,-182 8,-697 -5,-840 -41,-438 -407,-798 -854,-830 -163,-12 -640,-4 -835,-4 -146,0 -742,-8 -836,6zm37 296c-209,14 -363,138 -446,247 -131,170 -129,318 -129,567l0 1038c0,111 -5,233 3,342 15,209 139,363 247,445 174,133 312,129 566,129l1038 0c111,0 235,6 344,-3 209,-17 358,-137 443,-247 130,-170 129,-318 129,-567l0 -1038c0,-111 4,-233 -4,-342 -15,-209 -138,-363 -247,-445 -174,-132 -312,-129 -566,-129 -230,0 -460,0 -690,0 -220,0 -471,-11 -688,3z"/>
    <path class="fil1" d="M2690 1887c-463,33 -835,429 -803,928 30,457 430,834 928,801 460,-30 833,-433 801,-928 -29,-454 -431,-837 -926,-801zm-8 301c-188,30 -278,101 -369,202 -141,156 -177,429 -54,645 41,72 80,108 132,155 92,83 264,149 434,126 178,-25 282,-111 365,-203 142,-157 177,-428 54,-644 -102,-181 -332,-319 -562,-281z"/>
    <path class="fil1" d="M3610 1637c-70,21 -95,36 -132,85 -112,149 21,389 225,341 103,-25 197,-125 165,-263 -22,-99 -134,-199 -258,-163z"/>
   </g>
  </g>
 </g>
</svg>
