<?xml version="1.0" encoding="UTF-8"?>
<!DOCTYPE svg PUBLIC "-//W3C//DTD SVG 1.1//EN" "http://www.w3.org/Graphics/SVG/1.1/DTD/svg11.dtd">
<!-- Creator: CorelDRAW X8 -->
<svg xmlns="http://www.w3.org/2000/svg" xml:space="preserve" width="55.0332mm" height="55.0332mm" version="1.1" style="shape-rendering:geometricPrecision; text-rendering:geometricPrecision; image-rendering:optimizeQuality; fill-rule:evenodd; clip-rule:evenodd"
viewBox="0 0 5503 5503"
 xmlns:xlink="http://www.w3.org/1999/xlink">
 <defs>
  <style type="text/css">
   <![CDATA[
    .fil0 {fill:#F20746}
    .fil1 {fill:white}
   ]]>
  </style>
 </defs>
 <g id="Capa_x0020_1">
  <metadata id="CorelCorpID_0Corel-Layer"/>
  <g id="_2385837550592">
   <circle class="fil0" cx="2752" cy="2752" r="2668"/>
   <path class="fil1" d="M4220 1677c123,-67 274,-245 321,-413 -95,41 -187,93 -294,129 -166,56 -171,72 -272,-17 -456,-401 -1379,-119 -1259,780 -434,6 -1016,-239 -1316,-516 -57,-52 -110,-89 -163,-147 -49,-53 -70,-96 -132,-147 -96,166 -143,389 -76,609 69,230 137,258 261,396l20 22c2,-3 7,8 10,12 -162,-8 -207,-55 -329,-86 13,231 69,367 188,508 111,131 211,190 413,258 -40,25 -11,14 -74,25 -83,16 -172,1 -249,2 93,280 351,514 712,535l-108 89c-355,231 -621,233 -1009,246 78,79 377,201 517,245 622,193 1321,96 1844,-231 570,-357 1034,-1023 1041,-1999 74,-75 135,-106 205,-178 41,-43 133,-155 168,-223 -114,30 -285,112 -419,101z"/>
  </g>
 </g>
</svg>
