<?xml version="1.0" encoding="UTF-8"?>
<!DOCTYPE svg PUBLIC "-//W3C//DTD SVG 1.1//EN" "http://www.w3.org/Graphics/SVG/1.1/DTD/svg11.dtd">
<!-- Creator: CorelDRAW X8 -->
<svg xmlns="http://www.w3.org/2000/svg" xml:space="preserve" width="41.1478mm" height="66.1246mm" version="1.1" style="shape-rendering:geometricPrecision; text-rendering:geometricPrecision; image-rendering:optimizeQuality; fill-rule:evenodd; clip-rule:evenodd"
viewBox="0 0 4115 6612"
 xmlns:xlink="http://www.w3.org/1999/xlink">
 <defs>
  <style type="text/css">
   <![CDATA[
    .fil0 {fill:white}
   ]]>
  </style>
 </defs>
 <g id="Capa_x0020_1">
  <metadata id="CorelCorpID_0Corel-Layer"/>
  <path class="fil0" d="M4094 3260c0,275 -128,465 -320,612l-1116 1013c-153,122 -441,412 -559,505 -144,115 -412,379 -557,507l-227 200c-19,20 -32,35 -53,53l-168 151c-228,175 -280,311 -634,311 -231,0 -439,-202 -439,-425 0,-137 10,-225 80,-346 85,-145 154,-181 250,-269l179 -167c41,-41 56,-51 99,-87 35,-29 54,-57 88,-85l372 -333c39,-39 50,-48 92,-82 35,-27 55,-54 88,-85l1574 -1433c-29,-43 -53,-49 -90,-83l-552 -500c-36,-31 -58,-62 -94,-92l-1384 -1251c-38,-36 -60,-47 -100,-87 -38,-39 -51,-46 -92,-80 -34,-29 -55,-56 -87,-86l-193 -167c-35,-29 -52,-57 -80,-92 -315,-380 -90,-862 289,-862 335,0 485,164 742,402l669 609c45,35 67,66 110,103l1903 1716c101,101 210,271 210,430z"/>
 </g>
</svg>
