<?xml version="1.0" encoding="UTF-8"?>
<!DOCTYPE svg PUBLIC "-//W3C//DTD SVG 1.1//EN" "http://www.w3.org/Graphics/SVG/1.1/DTD/svg11.dtd">
<!-- Creator: CorelDRAW X8 -->
<svg xmlns="http://www.w3.org/2000/svg" xml:space="preserve" width="10.1598mm" height="10.1598mm" version="1.1" style="shape-rendering:geometricPrecision; text-rendering:geometricPrecision; image-rendering:optimizeQuality; fill-rule:evenodd; clip-rule:evenodd"
viewBox="0 0 1016 1016"
 xmlns:xlink="http://www.w3.org/1999/xlink">
 <defs>
  <style type="text/css">
   <![CDATA[
    .str1 {stroke:white;stroke-width:33.86}
    .str0 {stroke:white;stroke-width:25.39}
    .fil0 {fill:none}
    .fil1 {fill:white}
   ]]>
  </style>
 </defs>
 <g id="Capa_x0020_1">
  <metadata id="CorelCorpID_0Corel-Layer"/>
  <rect class="fil0" width="1016" height="1016"/>
  <g id="_2487472418096">
   <path class="fil0 str0" d="M648 346c-18,3 -29,13 -51,10 -37,-6 -71,-19 -97,6 -69,65 -42,159 16,202 113,83 193,-62 156,-134 -7,-15 -16,-23 -23,-36 -12,-21 -7,-28 -1,-48z"/>
   <path class="fil1 str0" d="M260 146c2,18 13,52 18,70 4,11 7,23 11,34 2,6 3,12 5,17 2,7 3,12 7,17 0,-25 -6,-109 -12,-135 -4,-20 -19,-11 -29,-3z"/>
   <path class="fil0 str1" d="M236 270c3,18 45,96 58,119 5,11 13,29 20,38 3,-6 -13,-139 -31,-158 -13,-14 -35,-10 -47,1z"/>
   <path class="fil0 str1" d="M620 807c12,-28 34,-51 57,-81 43,-55 71,-150 92,-223 13,-43 18,-47 -7,-81 -15,-21 -30,-40 -45,-61 -30,-40 -31,-42 -63,-25 0,-12 2,-22 -8,-29 -10,-6 -76,-26 -87,-28 -45,-12 -80,16 -116,31 -61,25 -57,36 -63,89 -4,44 -14,90 -22,133 -10,62 -11,73 10,130 14,39 30,74 34,120 0,4 1,14 2,25 -28,1 -51,24 -51,52l0 28c0,28 24,52 52,52l226 0c28,0 51,-24 51,-52l0 -28c0,-29 -23,-52 -51,-52l-11 0z"/>
   <path class="fil0 str1" d="M338 581c9,-13 22,-103 25,-126 6,-43 4,-95 25,-128 8,-12 13,-9 10,-27 -2,-11 -4,-22 -6,-33 -5,-22 -9,-42 -13,-64 -5,-21 -10,-41 -14,-63 -5,-25 -7,-38 -24,-52 -14,-11 -44,-19 -50,5 -2,11 5,55 7,70 10,85 19,190 27,278 2,24 6,47 6,71 0,18 -1,55 7,69z"/>
  </g>
 </g>
</svg>
