<?xml version="1.0" encoding="UTF-8"?>
<!DOCTYPE svg PUBLIC "-//W3C//DTD SVG 1.1//EN" "http://www.w3.org/Graphics/SVG/1.1/DTD/svg11.dtd">
<!-- Creator: CorelDRAW X8 -->
<svg xmlns="http://www.w3.org/2000/svg" xml:space="preserve" width="10.1598mm" height="10.1598mm" version="1.1" style="shape-rendering:geometricPrecision; text-rendering:geometricPrecision; image-rendering:optimizeQuality; fill-rule:evenodd; clip-rule:evenodd"
viewBox="0 0 1016 1016"
 xmlns:xlink="http://www.w3.org/1999/xlink">
 <defs>
  <style type="text/css">
   <![CDATA[
    .fil0 {fill:none}
    .fil1 {fill:white}
   ]]>
  </style>
 </defs>
 <g id="Capa_x0020_1">
  <metadata id="CorelCorpID_0Corel-Layer"/>
  <rect class="fil0" width="1016" height="1016"/>
  <g id="_2487461789600">
   <path class="fil1" d="M480 245l0 26c-5,2 -18,4 -23,5 -8,2 -15,4 -22,7 -43,15 -79,37 -110,66 -5,4 -11,8 -12,16 -2,10 3,17 8,20 24,16 32,-27 110,-60 13,-6 28,-10 43,-14 50,-11 44,3 44,-73 0,-10 1,-17 -5,-24 -6,-7 -12,-5 -23,-6 -19,-2 -20,-28 1,-29 18,-1 40,0 59,0 16,0 44,-4 39,18 -5,19 -28,3 -39,20 -5,7 -3,42 -3,54 0,59 16,15 110,65 13,6 34,21 36,22 29,13 49,-50 72,-40 7,2 12,10 9,19 -4,11 -39,35 -41,47 -2,14 8,21 20,38 92,137 37,322 -105,388 -108,51 -220,28 -304,-51 -13,-13 -34,-2 -31,16 1,15 46,46 61,55 155,93 329,31 409,-86 68,-100 73,-234 7,-336 -3,-5 -11,-14 -12,-19 10,-12 26,-22 32,-40 14,-43 -28,-83 -69,-67 -21,8 -27,25 -41,34 -9,-3 -36,-24 -83,-37 -7,-2 -26,-6 -31,-8l-1 -26c36,-8 51,-45 37,-74 -16,-34 -46,-30 -90,-30 -44,0 -73,-4 -89,30 -18,36 8,67 37,74z"/>
   <path class="fil1" d="M509 349c-50,6 -84,22 -115,46 -7,5 -16,13 -21,19 -8,10 -3,24 6,29 18,9 27,-10 51,-26 81,-54 182,-33 236,25 96,102 52,265 -78,306 -65,20 -141,1 -183,-43 -21,-23 -47,4 -31,24 22,25 69,50 104,59 106,26 190,-27 233,-82 81,-106 50,-262 -68,-330 -36,-20 -85,-34 -134,-27z"/>
   <path class="fil1" d="M563 513c-8,-4 -18,-7 -29,-7 -38,0 -66,29 -66,65 0,69 93,89 123,28 14,-29 3,-45 0,-60 9,-7 24,-24 33,-33 7,-7 30,-23 15,-40 -17,-18 -35,6 -42,14 -12,11 -23,22 -34,33z"/>
   <path class="fil1" d="M240 546c-20,7 -16,26 -9,32 9,9 31,6 46,6 19,0 89,2 102,-1 14,-4 19,-22 8,-33 -9,-8 -32,-5 -46,-5 -16,0 -92,-1 -101,1z"/>
   <path class="fil1" d="M194 455c-15,4 -19,22 -9,32 8,8 31,5 46,5 19,0 89,2 102,-1 14,-3 20,-22 8,-32 -8,-8 -32,-5 -46,-5 -17,0 -91,-2 -101,1z"/>
   <path class="fil1" d="M200 675l121 0 6 0c28,0 27,-38 0,-38l-126 0c-29,0 -27,38 -1,38z"/>
  </g>
 </g>
</svg>
