<?xml version="1.0" encoding="UTF-8"?>
<!DOCTYPE svg PUBLIC "-//W3C//DTD SVG 1.1//EN" "http://www.w3.org/Graphics/SVG/1.1/DTD/svg11.dtd">
<!-- Creator: CorelDRAW X8 -->
<svg xmlns="http://www.w3.org/2000/svg" xml:space="preserve" width="10.1598mm" height="10.1598mm" version="1.1" style="shape-rendering:geometricPrecision; text-rendering:geometricPrecision; image-rendering:optimizeQuality; fill-rule:evenodd; clip-rule:evenodd"
viewBox="0 0 1016 1016"
 xmlns:xlink="http://www.w3.org/1999/xlink">
 <defs>
  <style type="text/css">
   <![CDATA[
    .fil0 {fill:none}
    .fil1 {fill:white}
   ]]>
  </style>
 </defs>
 <g id="Capa_x0020_1">
  <metadata id="CorelCorpID_0Corel-Layer"/>
  <rect class="fil0" width="1016" height="1016"/>
  <path class="fil1" d="M711 75c152,0 275,123 275,275 0,61 -21,118 -55,164l-36 0c39,-44 62,-101 62,-164 0,-136 -110,-247 -246,-247 -84,0 -159,43 -203,107 -44,-64 -119,-107 -203,-107 -136,0 -246,111 -246,247 0,55 18,106 49,147l-35 0c-27,-42 -43,-93 -43,-147 0,-152 123,-275 275,-275 80,0 153,35 203,90 50,-55 123,-90 203,-90zm126 537l-329 329 -346 -346 41 0 305 305 289 -288 40 0z"/>
  <path class="fil1" d="M72 531l216 0 133 -285c1,-3 3,-5 5,-6l0 0 0 0 1 -1 0 0 0 0 0 0 1 0 0 0 0 -1 0 0 0 0 1 0 0 0 0 0 0 0 0 0 0 0 1 0 0 0 0 0 0 0 0 0 1 -1 0 0 0 0 0 0 0 0 0 0 1 0 0 0 0 0 0 0 0 0 0 0 1 0 0 0 0 0 1 0 0 0 0 0 0 0 1 0 0 0 1 0 0 0 1 0 0 0 0 0 0 0 0 0 0 0 1 0 0 0 0 0 1 0 0 0 0 1 0 0 1 0 0 0c4,1 8,5 10,10l123 461 102 -313 0 0 0 -1 0 0 0 0 0 0 0 -1 0 0 0 0 0 0 1 0 0 0 0 -2 0 0c1,-2 3,-3 5,-4l0 0 0 -1 0 0 1 0 0 0 0 0 0 0 0 0 0 0 1 -1 0 0 1 0 0 0 1 0 0 -1 1 0 0 0 0 0 1 0 0 0 0 0 0 0 0 0 1 0 0 0 0 0 0 0 0 0 1 0 0 0 0 0 1 0 0 0 0 0 0 0 0 0 0 0 1 0 0 0 0 0 0 0 1 0 0 0 0 0 0 0 1 0 0 0 0 0 0 0 0 0 0 0 1 0 0 0 0 0 0 0 0 0 1 1 0 0 0 0 0 0 0 0 0 0 0 0 1 0 0 0 0 0 0 0 0 0 0 0 1 0 0 0 0 1 0 0 0 0 1 0 0 0 0 0 0 0 0 0 0 0 1 1 0 0 0 0 0 0 0 0 0 0 1 0 0 0 0 1 0 0 0 0 0 0 0 0 0 0 1 0 0 0 0 1 0 0 0 0 1 0 0 0 0 1 0 0 0 0 0 0 1 1 0 0 0 0 0 0 0 0 0 0 0 1 0 0 0 0 0 0 1 0 0 0 0 1 0 0 0 0 0 0 71 153 170 0c8,0 15,7 15,16l0 0c0,8 -7,15 -15,15l-180 0c-3,0 -6,-1 -8,-2l0 0 -1 -1 0 0 0 0 0 0 0 0 -1 0 0 -1 0 0c-1,-1 -3,-3 -4,-5l-59 -126 -105 325 0 0 -1 1 0 0 0 0c-2,8 -11,12 -19,9l0 0c-6,-1 -10,-6 -11,-11l-125 -469 -119 255c-3,6 -8,9 -14,9l-1 0 0 0 -225 0c-9,0 -16,-7 -16,-16l0 0c0,-8 7,-15 16,-15z"/>
 </g>
</svg>
