<?xml version="1.0" encoding="UTF-8"?>
<!DOCTYPE svg PUBLIC "-//W3C//DTD SVG 1.1//EN" "http://www.w3.org/Graphics/SVG/1.1/DTD/svg11.dtd">
<!-- Creator: CorelDRAW X8 -->
<svg xmlns="http://www.w3.org/2000/svg" xml:space="preserve" width="52.7472mm" height="84.6666mm" version="1.1" style="shape-rendering:geometricPrecision; text-rendering:geometricPrecision; image-rendering:optimizeQuality; fill-rule:evenodd; clip-rule:evenodd"
viewBox="0 0 5275 8467"
 xmlns:xlink="http://www.w3.org/1999/xlink">
 <defs>
  <style type="text/css">
   <![CDATA[
    .fil0 {fill:#F20746}
   ]]>
  </style>
 </defs>
 <g id="Capa_x0020_1">
  <metadata id="CorelCorpID_0Corel-Layer"/>
  <path class="fil0" d="M2639 8210l154 -231c51,-89 94,-168 148,-258 104,-173 197,-338 295,-513 189,-343 375,-685 571,-1046 343,-630 765,-1491 1025,-2211 336,-930 455,-1711 -99,-2542 -1028,-1545 -3170,-1523 -4177,-20 -553,825 -467,1595 -119,2541 294,800 675,1500 1023,2213 265,543 582,1046 866,1558l313 509zm-171 -7205c-1214,104 -1990,1501 -1364,2601 346,608 958,982 1752,890 1201,-139 1944,-1514 1308,-2613 -59,-103 -117,-179 -173,-263 -232,-351 -937,-665 -1523,-615z"/>
 </g>
</svg>
