<?xml version="1.0" encoding="UTF-8"?>
<!DOCTYPE svg PUBLIC "-//W3C//DTD SVG 1.1//EN" "http://www.w3.org/Graphics/SVG/1.1/DTD/svg11.dtd">
<!-- Creator: CorelDRAW X8 -->
<svg xmlns="http://www.w3.org/2000/svg" xml:space="preserve" width="76.1998mm" height="41.3172mm" version="1.1" style="shape-rendering:geometricPrecision; text-rendering:geometricPrecision; image-rendering:optimizeQuality; fill-rule:evenodd; clip-rule:evenodd"
viewBox="0 0 7620 4132"
 xmlns:xlink="http://www.w3.org/1999/xlink">
 <defs>
  <style type="text/css">
   <![CDATA[
    .fil2 {fill:#F20746}
    .fil1 {fill:#F20746}
    .fil3 {fill:white}
    .fil0 {fill:white}
   ]]>
  </style>
 </defs>
 <g id="Capa_x0020_1">
  <metadata id="CorelCorpID_0Corel-Layer"/>
  <g id="_2013653253568">
   <path class="fil0" d="M4275 3018l13 -44 16 -60 22 -132 136 23 473 99 142 26 8 -21 30 -150c-32,-27 -110,-23 -150,-44l-597 -117 9 -58 20 -95 14 -92c9,-50 49,-202 39,-230 -12,-32 -50,-45 -83,-62l-445 -273c-14,-82 28,-95 87,-121 36,-16 128,-44 167,-43 121,5 272,-3 406,-2 79,1 474,43 566,63 119,27 133,34 155,-23 -9,-14 1,-4 -13,-17 -26,-21 -59,-23 -90,-34 -42,-16 -66,-34 -116,-50 -31,-11 -86,-24 -117,-38l-353 -132c-85,-32 -171,-41 -256,-64 -167,-46 -397,-62 -580,-34 -114,18 -286,115 -373,239 1,-15 -158,-93 -419,-169 0,0 -188,353 -396,328 -238,-28 -681,-459 -940,-440 -153,12 -310,41 -470,81 -257,64 -516,152 -748,281 -46,25 -66,46 -106,70 -57,34 -165,114 -215,136 79,219 257,389 411,556l219 204c14,11 25,17 37,25l118 99c168,124 344,220 530,316 58,30 126,60 192,87 162,66 362,108 431,138 229,99 734,116 992,134 13,197 102,242 162,304 120,124 359,205 533,241l243 47c87,13 187,20 279,30 65,8 80,4 139,-1 89,-6 199,18 285,4 6,-1 45,-10 57,-11 37,-4 29,5 64,-2 -17,-29 12,-10 -32,-29 -14,-6 -37,-8 -51,-10 -87,-17 -106,-44 -169,-69 -47,-19 -22,9 -81,-22 -41,-21 -41,-17 -76,-24 -86,-17 -182,-64 -264,-91 -31,-11 -58,-10 -79,-18 -25,-9 -41,-28 -80,-41 -104,-34 -53,-6 -149,-67 -88,-56 -223,-100 -251,-223 76,-101 150,-28 304,-65 60,-15 109,-24 168,-38 49,-11 135,-18 180,-38l52 -237zm69 -323c20,33 280,70 331,81 111,23 239,54 348,70l9 -36 -649 -137c-58,0 -21,-5 -39,22zm-1066 -217c17,27 5,15 49,26l687 138c75,15 183,44 256,50 11,-62 18,-30 -22,-46l-912 -186c-73,-13 -41,-5 -58,18zm915 589c14,-45 59,-265 53,-305l-284 -57 -72 361 -40 187 319 -51 24 -135zm137 -713c9,-11 5,-3 13,-22l17 -76c7,-39 17,-70 18,-109l-261 -168c-2,3 -4,3 -4,8l-37 152c-11,58 -26,118 -34,177l-43 202 290 64 41 -228zm-3362 313c15,12 25,17 45,32 28,21 22,22 59,32l242 -1207c16,-63 32,-118 45,-172 -31,7 -46,16 -78,25l-550 174c-56,19 -473,257 -527,297l20 32c36,112 261,361 330,432 61,64 126,124 198,184 55,46 153,137 216,171zm521 -1298c-89,57 -79,150 -117,326 -50,232 -115,499 -152,729 -9,49 -25,100 -22,150 -28,34 -45,165 -51,221 68,24 175,97 255,137 492,247 1051,364 1609,376 111,2 692,-5 749,-50 23,-20 26,-80 36,-130 19,-86 86,-389 84,-442l-686 -137c5,-54 38,-126 24,-175 116,-5 535,114 710,134 11,-101 39,-183 59,-284 20,-103 39,-194 53,-301 -46,-16 -111,-54 -156,-81 -54,-32 -241,-126 -370,-181 -85,-37 -168,-75 -251,-111 -71,-31 -156,-63 -251,-89 -162,-46 -205,463 -385,471 -112,4 -147,-203 -328,-354 -159,-132 -458,-204 -642,-266 -67,-23 -127,30 -168,57z"/>
   <path class="fil1" d="M4411 2353l-14 92c118,-44 345,-61 473,-55 257,11 546,153 822,227l440 88c-102,32 -734,-7 -876,13 202,66 1486,395 1622,482 -374,-61 -1017,-253 -1384,-159 111,53 405,138 601,227 41,19 144,64 171,101 -349,-107 -641,-158 -1021,-173 -255,-10 -645,-24 -876,-155 -86,-49 -69,-30 -81,-67l-13 44c56,23 122,84 291,155 89,37 235,85 331,105 301,63 495,52 800,63 499,18 980,160 1341,403 -19,-38 -94,-97 -138,-134 -21,-18 -27,-20 -51,-42l-224 -148c-140,-67 -266,-142 -433,-207l-37 -15c-2,-2 -5,-3 -7,-4 -26,-17 -5,-3 -19,-15 244,-13 786,64 1054,116 105,20 220,52 326,69 -257,-114 -521,-208 -817,-298 -143,-44 -283,-91 -430,-129 -105,-27 -354,-88 -428,-125 83,-9 475,9 607,8 201,-2 397,-10 593,-29 -58,-28 -251,-45 -329,-59 -101,-18 -231,-43 -324,-68l-608 -179c-492,-155 -844,-219 -1362,-132z"/>
   <path class="fil0" d="M1627 2601c24,6 33,25 57,46 17,15 43,33 66,48 48,30 107,47 166,63 218,18 302,-26 433,-127 50,-40 112,-136 137,-204 102,-286 -52,-517 -224,-625 -391,-247 -922,182 -727,643 29,70 63,103 92,156zm328 -801c-229,28 -413,236 -387,499 23,228 239,428 500,393 224,-30 408,-239 380,-500 -25,-226 -237,-423 -493,-392z"/>
   <path class="fil1" d="M3117 3383c-42,233 348,394 525,448 223,67 619,120 869,113 -148,-83 -1032,-239 -993,-579l-401 18z"/>
   <path class="fil2" d="M3481 1565l365 173c62,-180 304,-183 498,-185 232,-2 434,35 649,44 -169,-86 -548,-190 -762,-225 -143,-23 -315,-36 -461,-5 -157,34 -230,92 -289,198z"/>
   <g>
    <path class="fil1" d="M2889 1440c-54,85 -186,153 -261,170 -56,12 -108,12 -172,-8 -47,-14 -123,-61 -140,-98 -46,-15 -33,-37 -127,-79 -144,-64 -161,-76 -318,-131l-147 -45c-3,-8 -12,6 1,-13 -23,8 -47,23 -64,44l183 56c296,107 426,205 642,438 16,18 171,182 174,206l3 22c0,1 11,-4 11,-3 46,-11 28,-70 69,-146 62,-113 89,-163 162,-271 27,-41 64,-85 88,-125 -3,-6 -3,-6 -9,-13 4,5 -28,-22 -53,-45 -10,-9 -31,26 -42,41z"/>
    <path class="fil1" d="M3001 1161c0,0 31,1 31,1 -274,-31 -616,-107 -836,-267 -87,-62 -110,-110 -163,-179 -4,84 52,192 102,249 128,145 390,220 582,228 80,3 140,-5 213,-16 23,-3 50,-5 71,-16z"/>
    <path class="fil1" d="M3360 1411c-42,-6 -74,5 -122,-9 -36,-11 -80,-37 -115,-54 -63,-31 -176,-89 -144,-152 -38,5 -63,21 -111,30l-36 15c93,80 163,234 391,215 39,-4 109,-17 137,-45z"/>
    <path class="fil1" d="M1656 555c7,53 58,118 111,163 62,53 129,71 216,92 9,-45 -22,-67 17,-147 -8,5 -8,4 -17,14 -7,9 -7,13 -10,19 -119,4 -230,-67 -317,-141z"/>
    <path class="fil3" d="M2865 1725c1,-3 6,-16 7,-17 11,-20 21,-21 35,-42 34,-52 78,-128 114,-173 22,-28 33,-17 60,-6 104,39 233,19 325,-38 227,-141 186,-307 201,-341 6,-12 31,-40 39,-58 21,-42 34,-100 25,-144 -5,-27 0,-40 -7,-66 -16,-57 -29,-63 -60,-112 -24,-38 -62,-63 -99,-88 -72,-49 -196,-81 -276,-83 -57,0 -84,10 -131,19 -16,-114 -119,-282 -233,-336 -55,-26 -72,-50 -145,-76 -159,-56 -305,-48 -455,-7 -18,5 -50,16 -66,19 -26,4 -48,-19 -83,-27 -103,-23 -217,-34 -301,-1 -83,34 -163,97 -202,221 -30,97 -7,199 46,279 32,49 37,74 90,108l106 65c53,27 56,40 26,100 -20,40 -28,51 -47,83 -31,53 -244,263 -281,309 272,62 423,114 589,228 49,34 68,44 159,136 112,113 283,255 357,418 3,6 74,3 94,-89 41,-192 108,-271 113,-281zm-1143 -488c-22,8 -33,21 -50,42l171 50c296,106 445,215 660,449 33,35 167,175 165,214 0,1 -1,2 -1,3 45,-11 37,-142 78,-217 62,-114 84,-87 157,-195 28,-41 64,-84 89,-125 -4,-6 -3,-5 -9,-12l-95 -87c-38,-34 -57,-81 -84,-105 -20,-18 -96,0 -141,-6 -207,-27 -447,-94 -584,-257 -36,-42 -49,-78 -73,-117l-67 -15c-6,37 -6,63 -21,103 -23,58 -54,104 -90,152 -24,32 -96,104 -105,123zm1758 77c34,-49 55,-82 64,-152 -21,-8 -40,6 -74,1 47,-69 259,-184 91,-405 -86,-113 -281,-182 -423,-157l-28 8c5,44 27,73 11,105 -26,53 -46,-11 -51,-34 -17,-79 -27,-161 -67,-224 -180,-289 -541,-355 -834,-216 -26,12 -43,34 -68,19 -4,-23 18,-33 33,-57 -102,-23 -218,-22 -303,1 -57,15 -73,22 -118,69 -36,37 -67,94 -70,148 -7,42 -10,114 14,134 7,54 57,119 110,164 63,53 129,71 216,91 9,-45 -21,-67 17,-146l23 -12 10 65c-4,83 52,192 102,248 129,146 390,221 582,229 80,3 140,-6 213,-16 23,-4 50,-6 71,-17l31 2c-11,8 -16,11 -26,16 -18,9 -19,3 -27,17 -38,5 -63,21 -110,31l-36 14c92,80 162,234 390,215 39,-3 110,-16 138,-44 36,-4 83,-56 119,-97z"/>
   </g>
   <polygon class="fil3" points="1767,2488 1914,2486 1914,2292 1991,2292 1992,2188 1914,2188 1914,2106 2002,2106 2002,1992 1766,1992 "/>
   <polygon class="fil1" points="2025,2488 2172,2486 2172,2292 2250,2292 2250,2188 2172,2188 2172,2106 2260,2106 2260,1992 2025,1992 "/>
   <path class="fil1" d="M318 1855c248,-21 578,-174 855,3l83 -386c-241,19 -827,231 -938,383z"/>
  </g>
 </g>
</svg>
