<?xml version="1.0" encoding="UTF-8"?>
<!DOCTYPE svg PUBLIC "-//W3C//DTD SVG 1.1//EN" "http://www.w3.org/Graphics/SVG/1.1/DTD/svg11.dtd">
<!-- Creator: CorelDRAW X8 -->
<svg xmlns="http://www.w3.org/2000/svg" xml:space="preserve" width="78.4858mm" height="79.4172mm" version="1.1" style="shape-rendering:geometricPrecision; text-rendering:geometricPrecision; image-rendering:optimizeQuality; fill-rule:evenodd; clip-rule:evenodd"
viewBox="0 0 7849 7942"
 xmlns:xlink="http://www.w3.org/1999/xlink">
 <defs>
  <style type="text/css">
   <![CDATA[
    .fil0 {fill:#F20746}
   ]]>
  </style>
 </defs>
 <g id="Capa_x0020_1">
  <metadata id="CorelCorpID_0Corel-Layer"/>
  <g id="_1973997212096">
   <path class="fil0" d="M6362 5146c46,22 70,46 73,108 2,41 -12,65 -26,89l-15 17c-57,94 -282,60 -416,60l-950 0c-158,0 -303,11 -316,-142 -14,-168 151,-169 301,-169l935 0c102,0 377,-20 414,37zm461 -3c70,-65 432,-73 393,149 -29,168 -361,169 -425,66 -34,-27 -49,-60 -39,-115 10,-61 32,-85 71,-100zm-61 -704c24,-77 29,-81 105,-106 122,-21 331,-28 333,103 45,60 14,175 -133,202 -87,0 -186,12 -247,-29 -53,-36 -81,-98 -58,-170zm-446 -106c68,21 60,10 89,75 39,30 35,86 15,133 -22,53 -46,70 -115,90l-20 7 -1410 -1c-81,-9 -118,-27 -142,-86 -75,-142 42,-226 187,-229 158,-2 318,1 476,1 233,0 724,-26 920,10zm644 -797c99,1 163,-9 219,56 44,50 68,131 3,182 -12,49 29,2 -28,47 -1,1 -35,18 -42,20 -34,12 -66,14 -107,13 -49,0 -110,2 -152,-13 -48,-16 -56,-34 -75,-77 -55,-39 -50,-219 182,-228zm-2009 0l169 0 291 0 169 0 291 0 169 0 248 5c127,26 193,135 113,250l-50 38c-73,36 -167,27 -265,25l-261 0 -199 0 -261 0 -199 0 -261 0c-90,1 -136,-23 -173,-86 -2,-4 -5,-9 -6,-11 -1,-3 -4,-8 -5,-11 -1,-4 -6,-18 -8,-22 -35,-146 110,-186 238,-188zm2101 -782c34,3 53,1 86,18 41,22 19,10 38,40 71,76 51,183 -34,231 -64,36 -196,29 -275,15 -78,-25 -81,-28 -105,-106 -55,-178 126,-207 290,-198zm-2258 24l81 -24c304,-17 860,-1 1211,-2 124,0 284,-25 313,83 21,16 25,-6 36,60 4,26 0,46 -10,71 -22,57 -53,74 -109,92 -206,37 -735,9 -981,9 -118,0 -395,15 -495,-5 -146,-29 -179,-215 -46,-284zm1537 -792c73,25 65,16 89,92 61,145 -74,204 -211,205 -153,0 -307,-1 -461,-1 -208,0 -733,26 -904,-6 -83,-17 -98,-32 -121,-106 -54,-152 83,-201 228,-200 159,1 317,1 476,1 126,0 850,-21 904,15zm441 72c27,-61 49,-72 126,-86 89,-5 201,-14 259,31 44,35 105,155 31,198 -31,62 -20,52 -91,76 -89,9 -217,20 -280,-25 -69,-49 -79,-125 -45,-194zm-2094 -1334l-57 30c-274,111 -344,210 -492,468 -90,361 -49,1052 -49,1469 0,1450 11,2938 0,4384 -1,138 -19,195 14,138 11,-55 20,-91 45,-137 10,-17 33,-49 38,-55 24,-25 27,-23 46,-35 -10,-24 -13,-21 10,-10 15,-22 14,-28 44,-54 5,-3 35,-23 47,-30 50,-28 82,-32 137,-45l70 2c16,-9 -4,-5 38,-13 17,-4 27,-4 44,-5l246 2c676,0 1670,23 2269,-3 342,-10 607,-292 690,-567l31 -199 0 -230 0 -230 0 -230 0 -230 0 -230 0 -230 0 -230 0 -230 0 -230 0 -230 0 -230 0 -230 0 -230 0 -230 0 -230 0 -230 0 -229 0 -230 0 -230 -3 -230 -36 -251c-45,-32 -88,-138 -118,-189l-27 -35c-38,-32 -40,-45 -88,-81 -31,-24 -61,-52 -95,-73 -70,-45 -160,-73 -221,-99 -272,-52 -1521,-23 -1957,-23l-626 10z"/>
   <path class="fil0" d="M2497 3105c-16,155 -77,321 -168,383 -34,53 -124,134 -184,167 -33,35 -54,74 -98,103 8,95 -8,327 -8,451 0,153 0,306 0,460 0,300 -9,594 -16,889 -4,66 3,20 -18,37 30,145 -76,324 -236,294 -127,-25 -197,-215 -171,-355 -9,-16 -3,6 -17,-37 -3,-13 -1,-17 -2,-31l-9 -1687c-20,-20 -2,1 -24,-27 -4,-5 -11,-13 -14,-18 -17,-24 -16,-23 -30,-48 -38,-25 -149,-116 -173,-148 -42,-28 -77,-68 -100,-126 -37,-20 -58,-77 -57,-127 -27,-23 -21,-7 -38,-59 -8,-25 -11,-52 -15,-75l-15 -353c2,-37 4,-76 9,-112 4,-23 4,-31 11,-52 14,-41 -3,-8 17,-31 -12,-85 21,-166 41,-234l42 -128c10,-38 15,-63 34,-87 20,-82 62,-180 122,-229 22,-50 49,-88 88,-113 21,-45 32,-43 78,-74 35,-23 51,-36 86,-51 81,-35 190,-40 259,-16 49,11 95,20 117,55 126,45 297,269 336,428 52,67 151,399 134,503 24,15 16,-25 21,34 1,161 15,248 -2,414zm-1955 -2358l-77 31c-18,12 -44,27 -70,41 -38,21 -21,16 -60,24 -32,61 -43,47 -90,86 -40,33 -37,48 -74,78l-65 90c-18,50 -24,87 -68,117l-36 251 -2 230 0 230 0 230 0 229 0 230 0 230 0 230 0 230 0 230 0 230 0 230 0 230 0 230 0 230 0 230 0 230 0 230 0 230 0 230 0 230 31 199c13,43 16,57 37,100 28,54 26,32 32,90l42 50c39,35 48,64 94,106 36,32 72,50 86,85l61 26c57,37 102,58 169,79 385,70 961,34 1379,34 68,0 1320,-21 1387,16l70 -2 111 39c37,13 45,16 72,37 2,2 29,26 31,29 30,32 12,11 23,34 79,50 108,117 129,227l-5 23 29 0c-29,-188 -9,-524 -9,-728 0,-515 -21,-4892 9,-5051 -32,-42 -40,-177 -65,-241 -31,-79 -81,-139 -108,-207 -23,-10 -92,-88 -112,-109 -37,-17 -50,-33 -84,-55 -41,-26 -50,-25 -77,-62l-36 -11 -189 -50c-160,-22 -1666,-8 -1957,-8 -377,0 -262,-6 -608,33z"/>
  </g>
 </g>
</svg>
