<?xml version="1.0" encoding="UTF-8"?>
<!DOCTYPE svg PUBLIC "-//W3C//DTD SVG 1.1//EN" "http://www.w3.org/Graphics/SVG/1.1/DTD/svg11.dtd">
<!-- Creator: CorelDRAW X8 -->
<svg xmlns="http://www.w3.org/2000/svg" xml:space="preserve" width="66.0398mm" height="66.1246mm" version="1.1" style="shape-rendering:geometricPrecision; text-rendering:geometricPrecision; image-rendering:optimizeQuality; fill-rule:evenodd; clip-rule:evenodd"
viewBox="0 0 6604 6612"
 xmlns:xlink="http://www.w3.org/1999/xlink">
 <defs>
  <style type="text/css">
   <![CDATA[
    .fil0 {fill:white}
   ]]>
  </style>
 </defs>
 <g id="Capa_x0020_1">
  <metadata id="CorelCorpID_0Corel-Layer"/>
  <path class="fil0" d="M4272 4737l1832 1826c279,162 613,-109 466,-430l-1838 -1856c119,-298 655,-790 533,-1919 -246,-2256 -2976,-3114 -4501,-1589 -1519,1520 -663,4242 1558,4498 1152,132 1628,-401 1950,-530zm-2036 -4034c-282,66 -510,158 -714,295 -639,430 -1010,1249 -821,2081 383,1690 2607,2088 3544,712 1078,-1581 -357,-3476 -2009,-3088z"/>
 </g>
</svg>
